<svg id="Layer_1" data-name="Layer 1" xmlns="http://www.w3.org/2000/svg" viewBox="0 0 64 64"><title>lady liberty</title><path d="M59,58.87H47.08a7.51,7.51,0,0,1-7.49-7.07l-.51-8.72a2.22,2.22,0,0,0-3.21-1.86A1,1,0,1,1,35,39.43l3.77-1.87h0L42,35.95a3.66,3.66,0,0,0,.75-.5,3.6,3.6,0,0,0-.51-5.59,3.4,3.4,0,0,1-.6-.56l-1.48-1.8a13.57,13.57,0,0,0-4.61-3.85A2.67,2.67,0,0,1,34,21.22V18.58a2,2,0,0,0-.14-.72l2.07-2a.19.19,0,0,0-.2-.3l-2.13,1L34.68,14a.19.19,0,0,0-.32-.19l-1.54,1.74a.13.13,0,0,1-.23-.07L32.18,13a.19.19,0,0,0-.37,0l-.41,2.49a.13.13,0,0,1-.23.07l-1.54-1.74a.19.19,0,0,0-.32.19l1.09,2.6-2.13-1a.19.19,0,0,0-.2.3l2.07,2a2,2,0,0,0-.14.72v1.17a1.29,1.29,0,0,1-2.21.92,10.67,10.67,0,0,1-2.59-4.19l-1-3a.84.84,0,0,0-.8-.58H18.83a.83.83,0,0,0-.82.84,14.19,14.19,0,0,0,1.38,5.7l1.48,3.1a16.5,16.5,0,0,0,2.8,4,.42.42,0,0,0,.73-.25l.18-1.86a.92.92,0,0,1,1.83.15L24.47,51.87a7.51,7.51,0,0,1-7.49,7H5a1,1,0,0,0,0,2H59a1,1,0,0,0,0-2ZM34,34.12V31.3a.43.43,0,0,1,.43-.43h3.14a.43.43,0,0,1,.43.43v.88a1.11,1.11,0,0,1-.61,1l-2.71,1.35A.47.47,0,0,1,34,34.12Z"/><path d="M17.52,9.92l.28.55a.73.73,0,0,0,.65.4h5.1a.73.73,0,0,0,.65-.4l.28-.55a.72.72,0,0,0-.65-1h-1.5l.25-.25a3,3,0,0,0,0-4.18L21.43,3.31a.61.61,0,0,0-.86,0L19.42,4.45a3,3,0,0,0,0,4.18l.25.25h-1.5A.72.72,0,0,0,17.52,9.92Z"/></svg>